HIERARCHY
ROOT Hips
{
	OFFSET 0.000000 0.000000 0.000000
	CHANNELS 6 Xposition Yposition Zposition Xrotation Yrotation Zrotation
	JOINT LeftUpLeg_virtual
	{
		OFFSET 0.000000 0.000000 0.000000
		CHANNELS 3 Xrotation Yrotation Zrotation
		JOINT LeftUpLeg
		{
			OFFSET 10.205400 -3.823500 0.155100
			CHANNELS 3 Xrotation Yrotation Zrotation
			JOINT LeftLeg
			{
				OFFSET 0.708757 -12.982077 0.567790
				CHANNELS 3 Xrotation Yrotation Zrotation
				JOINT LeftFoot
				{
					OFFSET -0.708756 -10.717838 -2.184338
					CHANNELS 3 Xrotation Yrotation Zrotation
					JOINT LeftToeBase
					{
						OFFSET 0.108149 -7.191104 7.560241
						CHANNELS 3 Xrotation Yrotation Zrotation
						JOINT LeftToe_End
						{
							OFFSET 0.070230 0.081724 4.490308
							CHANNELS 3 Xrotation Yrotation Zrotation
							End Site
							{
								OFFSET 0 0 0
							}
						}
					}
				}
			}
		}
	}
	JOINT RightUpLeg_virtual
	{
		OFFSET 0.000000 0.000000 0.000000
		CHANNELS 3 Xrotation Yrotation Zrotation
		JOINT RightUpLeg
		{
			OFFSET -10.205400 -3.823500 0.005500
			CHANNELS 3 Xrotation Yrotation Zrotation
			JOINT RightLeg
			{
				OFFSET -0.708756 -12.982134 0.610632
				CHANNELS 3 Xrotation Yrotation Zrotation
				JOINT RightFoot
				{
					OFFSET 0.708754 -10.717769 -1.945823
					CHANNELS 3 Xrotation Yrotation Zrotation
					JOINT RightToeBase
					{
						OFFSET -0.108140 -7.191069 7.372968
						CHANNELS 3 Xrotation Yrotation Zrotation
						JOINT RightToe_End
						{
							OFFSET -0.070227 0.081735 4.479403
							CHANNELS 3 Xrotation Yrotation Zrotation
							End Site
							{
								OFFSET 0 0 0
							}
						}
					}
				}
			}
		}
	}
	JOINT Spine_virtual
	{
		OFFSET 0.000000 0.000000 0.000000
		CHANNELS 3 Xrotation Yrotation Zrotation
		JOINT Spine
		{
			OFFSET 0.000000 6.876099 0.125700
			CHANNELS 3 Xrotation Yrotation Zrotation
			JOINT Spine1
			{
				OFFSET 0.000000 5.730043 0.104720
				CHANNELS 3 Xrotation Yrotation Zrotation
				JOINT Spine1_split
				{
					OFFSET 0.000000 5.730043 0.104720
					CHANNELS 3 Xrotation Yrotation Zrotation
					JOINT Spine2
					{
						OFFSET 0.000000 5.730043 0.104720
						CHANNELS 3 Xrotation Yrotation Zrotation
						JOINT Neck_virtual
						{
							OFFSET 0.000000 0.000000 0.000000
							CHANNELS 3 Xrotation Yrotation Zrotation
							JOINT Neck
							{
								OFFSET 0.000000 10.314075 0.188496
								CHANNELS 3 Xrotation Yrotation Zrotation
								JOINT Head
								{
									OFFSET 0.000000 7.643700 -2.377400
									CHANNELS 3 Xrotation Yrotation Zrotation
									JOINT HeadTop_End
									{
										OFFSET 0.000000 43.788605 -13.619600
										CHANNELS 3 Xrotation Yrotation Zrotation
										End Site
										{
											OFFSET 0 0 0
										}
									}
								}
							}
						}
						JOINT LeftShoulder_virtual
						{
							OFFSET 0.000000 0.000000 0.000000
							CHANNELS 3 Xrotation Yrotation Zrotation
							JOINT LeftShoulder
							{
								OFFSET 2.196100 4.412489 0.087492
								CHANNELS 3 Xrotation Yrotation Zrotation
								JOINT LeftShoulder_split
								{
									OFFSET 2.196100 4.412489 0.087492
									CHANNELS 3 Xrotation Yrotation Zrotation
									JOINT LeftArm
									{
										OFFSET 8.771219 -2.981674 -0.026999
										CHANNELS 3 Xrotation Yrotation Zrotation
										JOINT LeftForeArm
										{
											OFFSET 8.512804 0.000000 -0.000000
											CHANNELS 3 Xrotation Yrotation Zrotation
											JOINT LeftHand
											{
												OFFSET 18.484802 0.000000 -0.000000
												CHANNELS 3 Xrotation Yrotation Zrotation
												End Site
												{
													OFFSET 0 0 0
												}
											}
										}
									}
								}
							}
						}
						JOINT RightShoulder_virtual
						{
							OFFSET 0.000000 0.000000 0.000000
							CHANNELS 3 Xrotation Yrotation Zrotation
							JOINT RightShoulder
							{
								OFFSET -2.196100 4.412496 0.070690
								CHANNELS 3 Xrotation Yrotation Zrotation
								JOINT RightShoulder_split
								{
									OFFSET -2.196100 4.412496 0.070690
									CHANNELS 3 Xrotation Yrotation Zrotation
									JOINT RightArm
									{
										OFFSET -8.771282 -2.981682 -0.094208
										CHANNELS 3 Xrotation Yrotation Zrotation
										JOINT RightForeArm
										{
											OFFSET -8.494598 0.000000 0.000000
											CHANNELS 3 Xrotation Yrotation Zrotation
											JOINT RightHand
											{
												OFFSET -18.483803 0.000000 0.000001
												CHANNELS 3 Xrotation Yrotation Zrotation
												End Site
												{
													OFFSET 0 0 0
												}
											}
										}
									}
								}
							}
						}
					}
				}
			}
		}
	}
}
MOTION
Frames: 7
Frame Time: 0.03333333
1.364215 32.725960 -4.094784 0.000000 0.000000 0.000000 -0.793463 -18.851689 1.376843 -25.247125 30.338918 17.248833 30.275288 2.428270 7.088269 -4.881534 8.883970 -21.573393 -0.730165 -1.909164 -0.042805 0.000000 0.000000 0.000000 -0.539526 -16.837729 1.436143 -5.755877 -13.012783 -10.116588 23.473813 6.911191 -2.034250 -22.237778 -11.018285 24.538520 7.752286 0.554105 -22.228041 0.000000 0.000000 0.000000 -2.493441 -13.904678 0.356482 -0.476156 0.795618 -0.444819 4.303208 -3.932080 0.486106 0.117300 -0.267741 -0.002230 0.000000 0.000000 0.000000 4.768660 -1.149700 0.943351 -9.579990 21.818182 8.216895 -3.318265 -0.474716 -14.914165 0.000000 0.000000 0.000000 4.072538 -3.536880 0.192163 0.623109 3.533474 3.667884 6.659986 -2.089377 0.298453 -55.261718 -1.027365 -42.753508 38.285270 -71.003860 30.660702 0.000000 0.000000 0.000000 4.399022 -3.165702 1.127144 -4.674770 -5.482557 12.217199 -0.592468 -5.002889 3.926841 -53.562941 55.371367 72.002666 -106.465574 84.769095 105.683538 0.000000 0.000000 0.000000 
1.360538 32.723347 -4.092297 0.000000 0.000000 0.000000 -0.790421 -18.875887 1.413667 -25.244524 30.415693 17.246528 30.253531 2.414708 7.061879 -4.889843 8.863001 -21.477409 -0.714430 -1.902873 -0.101760 0.000000 0.000000 0.000000 -0.539692 -16.851735 1.470483 -5.785413 -13.107493 -10.108157 23.518822 6.969787 -2.100360 -22.293299 -10.951417 24.432990 7.801999 0.539838 -22.340355 0.000000 0.000000 0.000000 -2.482117 -13.928555 0.396550 -0.468258 0.737878 -0.446846 4.273033 -3.935910 0.484883 0.116498 -0.270664 -0.002249 0.000000 0.000000 0.000000 4.746280 -1.152907 0.946434 -9.516489 21.870534 8.174492 -3.463176 -0.413119 -14.946044 0.000000 0.000000 0.000000 4.052734 -3.536399 0.195054 0.629795 3.594407 3.623152 6.608081 -2.155883 0.288428 -55.224876 -1.124613 -42.710027 38.310989 -70.939219 30.658011 0.000000 0.000000 0.000000 4.367664 -3.174997 1.126855 -4.664403 -5.466464 12.205439 -0.600719 -5.002152 3.943808 -53.578309 55.432565 71.966438 -106.764654 84.748386 105.975262 0.000000 0.000000 0.000000 
1.357529 32.719967 -4.089113 0.000000 0.000000 0.000000 -0.782042 -18.900448 1.445114 -25.255763 30.499366 17.263827 30.237842 2.397259 7.031693 -4.920110 8.835819 -21.369640 -0.705575 -1.897688 -0.158685 0.000000 0.000000 0.000000 -0.538653 -16.872222 1.499391 -5.818958 -13.205343 -10.103227 23.561287 7.031382 -2.164195 -22.349806 -10.870776 24.308418 7.840237 0.525296 -22.466150 0.000000 0.000000 0.000000 -2.465937 -13.967485 0.434680 -0.461277 0.682995 -0.445093 4.244695 -3.936311 0.484390 0.115102 -0.270165 -0.002736 0.000000 0.000000 0.000000 4.720252 -1.153158 0.949863 -9.448295 21.924513 8.125503 -3.622673 -0.383808 -14.967530 0.000000 0.000000 0.000000 4.038179 -3.533415 0.198747 0.642728 3.633160 3.575454 6.543086 -2.224082 0.286097 -55.227451 -1.221902 -42.646509 38.325059 -70.856382 30.634450 0.000000 0.000000 0.000000 4.342419 -3.179795 1.127133 -4.657106 -5.437219 12.186224 -0.630889 -4.994352 3.954880 -53.547259 55.476647 71.900609 -107.126593 84.715055 106.326081 0.000000 0.000000 0.000000 
1.355105 32.716213 -4.086229 0.000000 0.000000 0.000000 -0.772328 -18.933870 1.473268 -25.275752 30.580075 17.293522 30.234935 2.370084 7.002007 -4.944678 8.804470 -21.292314 -0.716785 -1.893899 -0.209416 0.000000 0.000000 0.000000 -0.537756 -16.908517 1.526495 -5.860207 -13.299256 -10.108233 23.602694 7.090801 -2.220480 -22.388185 -10.783693 24.190604 7.843261 0.511667 -22.598125 0.000000 0.000000 0.000000 -2.448662 -14.026387 0.470947 -0.460442 0.632307 -0.437965 4.219307 -3.933702 0.484177 0.113457 -0.266643 -0.004028 0.000000 0.000000 0.000000 4.691082 -1.150859 0.953570 -9.371298 21.975790 8.070443 -3.775180 -0.396336 -14.974922 0.000000 0.000000 0.000000 4.030356 -3.528648 0.203824 0.660372 3.654406 3.527457 6.466439 -2.299604 0.293460 -55.285535 -1.321462 -42.574540 38.321832 -70.742236 30.586526 0.000000 0.000000 0.000000 4.326298 -3.179411 1.128221 -4.652829 -5.390654 12.153367 -0.677346 -4.971237 3.957216 -53.478421 55.503299 71.821454 -107.275224 84.674463 106.458183 0.000000 0.000000 0.000000 
1.352443 32.712833 -4.082451 0.000000 0.000000 0.000000 -0.765238 -18.982071 1.500155 -25.292208 30.651765 17.322243 30.246004 2.342074 6.979644 -4.957946 8.783137 -21.257021 -0.743395 -1.892504 -0.251560 0.000000 0.000000 0.000000 -0.534187 -16.962208 1.554843 -5.912204 -13.379501 -10.125144 23.646081 7.140655 -2.264914 -22.405220 -10.703911 24.095775 7.812586 0.494375 -22.724108 0.000000 0.000000 0.000000 -2.430637 -14.101071 0.505634 -0.469571 0.584518 -0.425295 4.197827 -3.929600 0.484081 0.113353 -0.260625 -0.005466 0.000000 0.000000 0.000000 4.661320 -1.146853 0.956920 -9.283948 22.021356 8.015061 -3.903440 -0.456852 -14.966203 0.000000 0.000000 0.000000 4.030142 -3.523793 0.210591 0.679374 3.664598 3.483674 6.393057 -2.365420 0.310775 -55.397653 -1.420272 -42.507880 38.306829 -70.592239 30.524126 0.000000 0.000000 0.000000 4.320150 -3.174899 1.130574 -4.651067 -5.325386 12.098101 -0.719383 -4.936158 3.956072 -53.402807 55.519719 71.759053 -106.973460 84.630565 106.133804 0.000000 0.000000 0.000000 
1.349386 32.709843 -4.078661 0.000000 0.000000 0.000000 -0.760629 -19.040800 1.527692 -25.291219 30.709613 17.340377 30.259784 2.321816 6.970147 -4.963929 8.783807 -21.269685 -0.774877 -1.892765 -0.285327 0.000000 0.000000 0.000000 -0.529284 -17.032769 1.585962 -5.970128 -13.437167 -10.154620 23.690948 7.176097 -2.294567 -22.415579 -10.637475 24.023930 7.782594 0.468029 -22.831490 0.000000 0.000000 0.000000 -2.413062 -14.188039 0.538444 -0.488490 0.537507 -0.407645 4.180417 -3.926422 0.484748 0.114220 -0.253061 -0.007187 0.000000 0.000000 0.000000 4.633330 -1.143386 0.960327 -9.190141 22.057024 7.966389 -3.999489 -0.560014 -14.944063 0.000000 0.000000 0.000000 4.037250 -3.520738 0.220393 0.697250 3.671744 3.445240 6.319701 -2.408391 0.333372 -55.555222 -1.516997 -42.463286 38.299073 -70.404559 30.467131 0.000000 0.000000 0.000000 4.323552 -3.168864 1.134182 -4.651599 -5.244945 12.015679 -0.752983 -4.897981 3.937124 -53.348238 55.528294 71.733864 -106.097160 84.583724 105.228312 0.000000 0.000000 0.000000 
1.345830 32.707863 -4.075121 0.000000 0.000000 0.000000 -0.757705 -19.112073 1.556167 -25.258046 30.749187 17.339132 30.254630 2.317689 6.976510 -4.971132 8.815984 -21.334123 -0.809572 -1.893531 -0.311914 0.000000 0.000000 0.000000 -0.521555 -17.114658 1.619718 -6.026629 -13.466217 -10.193548 23.738415 7.192688 -2.308763 -22.432633 -10.590914 23.970675 7.783803 0.429237 -22.908803 0.000000 0.000000 0.000000 -2.394746 -14.284629 0.569419 -0.515494 0.490038 -0.385529 4.167559 -3.924110 0.487014 0.115435 -0.244445 -0.009520 0.000000 0.000000 0.000000 4.608988 -1.141364 0.963929 -9.094896 22.080463 7.929944 -4.063425 -0.691289 -14.917657 0.000000 0.000000 0.000000 4.049851 -3.520363 0.234239 0.711757 3.682478 3.413958 6.249699 -2.425226 0.356201 -55.726940 -1.602828 -42.442618 38.321873 -70.190630 30.442286 0.000000 0.000000 0.000000 4.333787 -3.163194 1.139092 -4.654055 -5.156199 11.905447 -0.784620 -4.866281 3.902711 -53.341418 55.537860 71.759381 -104.647316 84.531657 103.743265 0.000000 0.000000 0.000000 
